<?xml version="1.0" standalone="no"?>
<!DOCTYPE svg PUBLIC "-//W3C//DTD SVG 1.1//EN" "http://www.w3.org/Graphics/SVG/1.1/DTD/svg11.dtd" >
<svg xmlns="http://www.w3.org/2000/svg">
<metadata>
Created by FontForge 20120731 at Fri Jun  2 11:52:06 2017
 By admin
</metadata>
<defs>
<font id="iconfont" horiz-adv-x="1024" >
  <font-face 
    font-family="iconfont"
    font-weight="500"
    font-stretch="normal"
    units-per-em="1024"
    panose-1="2 0 6 3 0 0 0 0 0 0"
    ascent="896"
    descent="-128"
    x-height="792"
    bbox="-0.565789 -212 1379 896"
    underline-thickness="0"
    underline-position="0"
    unicode-range="U+0078-E76F"
  />
<missing-glyph 
 />
    <glyph glyph-name=".notdef" 
 />
    <glyph glyph-name=".notdef" 
 />
    <glyph glyph-name=".null" horiz-adv-x="0" 
 />
    <glyph glyph-name="nonmarkingreturn" horiz-adv-x="341" 
 />
    <glyph glyph-name="x" unicode="x" horiz-adv-x="1001" 
d="M281 543q-27 -1 -53 -1h-83q-18 0 -36.5 -6t-32.5 -18.5t-23 -32t-9 -45.5v-76h912v41q0 16 -0.5 30t-0.5 18q0 13 -5 29t-17 29.5t-31.5 22.5t-49.5 9h-133v-97h-438v97zM955 310v-52q0 -23 0.5 -52t0.5 -58t-10.5 -47.5t-26 -30t-33 -16t-31.5 -4.5q-14 -1 -29.5 -0.5
t-29.5 0.5h-32l-45 128h-439l-44 -128h-29h-34q-20 0 -45 1q-25 0 -41 9.5t-25.5 23t-13.5 29.5t-4 30v167h911zM163 247q-12 0 -21 -8.5t-9 -21.5t9 -21.5t21 -8.5q13 0 22 8.5t9 21.5t-9 21.5t-22 8.5zM316 123q-8 -26 -14 -48q-5 -19 -10.5 -37t-7.5 -25t-3 -15t1 -14.5
t9.5 -10.5t21.5 -4h37h67h81h80h64h36q23 0 34 12t2 38q-5 13 -9.5 30.5t-9.5 34.5q-5 19 -11 39h-368zM336 498v228q0 11 2.5 23t10 21.5t20.5 15.5t34 6h188q31 0 51.5 -14.5t20.5 -52.5v-227h-327z" />
    <glyph glyph-name="search" unicode="&#xe600;" horiz-adv-x="1000" 
d="M173 641q43 49 103 78.5t126 33.5q61 5 121 -13t108 -56q59 -45 94 -112t37 -140q4 -64 -17.5 -125.5t-63.5 -110.5q37 -36 124.5 -123.5l134.5 -134.5q-9 -9 -27.5 -28t-28.5 -28q-26 25 -118.5 117.5t-142.5 143.5q-54 -40 -121 -55.5t-133 -3.5q-65 10 -122.5 46
t-95.5 89q-50 69 -60 152q-11 73 11 144.5t71 125.5zM392 713q-31 -5 -41 -8q-64 -16 -116.5 -60t-80.5 -104q-31 -68 -26 -144q4 -72 42.5 -135t99.5 -100q63 -39 140.5 -43t144.5 29q64 31 108 89.5t56 128.5q11 66 -7 129q-18 68 -67 121.5t-114 78.5t-139 18z" />
    <glyph glyph-name="twitter" unicode="&#xe634;" 
d="M672 674q49 1 81.5 -13.5t63.5 -43.5q38 3 94 31q17 10 23 13q-21 -57 -59 -86q-17 -13 -20 -15v0q17 0 34.5 4.5t39.5 13t29 10.5v-1q-27 -43 -62 -71q-5 -4 -15.5 -12t-12.5 -11q0 -75 -9 -118q-35 -155 -125.5 -258t-234.5 -147q-54 -17 -125.5 -21t-133.5 10
q-63 16 -108 35q-28 12 -52 27q-10 6 -16 10l28 -2.5t30 0.5q8 1 26 2t27 3q67 15 110 40q3 2 12 7t14.5 8t12.5 8t11 10q-26 -1 -55 9q-82 29 -116 118q68 -8 82 3q-24 2 -61 25q-86 54 -86 157q6 -3 19 -9t38 -11q20 -4 25 -2v0q-5 5 -17 14t-17 15q-64 80 -41 167
q5 22 19 48q1 0 1 -0.5v-0.5q2 -4 9 -11l8 -8q21 -26 55 -52q52 -41 103 -66t121 -43q43 -10 82 -10q-5 19 -4.5 43t5.5 43q25 89 104 123q17 7 41 12q8 1 22 3v0z" />
    <glyph glyph-name="left" unicode="&#xe612;" 
d="M748 697l-48 48l-446 -447l446 -446l48 48l-398 398z" />
    <glyph glyph-name="right" unicode="&#xe613;" 
d="M254 -100l48 -48l446 446l-446 447l-48 -48l398 -399z" />
    <glyph glyph-name="email" unicode="&#xe666;" 
d="M128 544v-512h768v512h-768zM512 264l-326 248h652zM160 64v428l230 -175l-136 -155l4 -4l158 139l96 -73l96 73l158 -139l4 4l-136 155l230 175v-428h-704z" />
    <glyph glyph-name="star1" unicode="&#xe64b;" 
d="M1020 410q-6 19 -22 32t-37 17l-266 39l-116 241q-9 19 -27.5 30t-39.5 11t-39.5 -11t-27.5 -30l-116 -241l-266 -39q-21 -4 -37 -17t-22 -32q-14 -42 17 -73l195 -195l-45 -270q-3 -21 5 -40t25 -31q20 -13 43 -13q19 0 36 9l232 125l232 -125q17 -9 36 -9q23 0 43 13
q17 12 25 31t5 40l-45 270l195 195q31 31 17 73zM755 192q-26 -26 -20 -62l45 -270l-232 125q-17 9 -36 9t-36 -9l-232 -125l45 270q6 36 -20 62l-195 195l266 40q39 6 56 41l116 240l116 -240q17 -35 56 -41l266 -40z" />
    <glyph glyph-name="weibo" unicode="&#xe63b;" 
d="M757 309q-17 3 -22.5 10.5t-1.5 12.5l4 6q2 2 4 6.5t6.5 18.5t5 26.5t-5 29t-18.5 29.5q-16 16 -42.5 21.5t-52.5 1t-49.5 -10.5t-38.5 -13l-15 -6q-11 -4 -18.5 -5t-12 0.5t-6.5 3.5t-2 8.5t1 10.5t3 14t4 17q0 17 -3 32t-12.5 31.5t-26 25t-47 8t-71.5 -14.5
q-118 -41 -240 -189q-26 -31 -24 -31q-24 -32 -40.5 -64t-23 -56t-9 -42.5t-2.5 -28.5t1 -10q6 -56 33.5 -100t65.5 -71.5t89.5 -47t98.5 -28t100 -13.5q87 -6 179.5 14.5t172.5 70.5t113 120q19 41 19.5 77t-12 59t-33.5 40.5t-38.5 25.5t-32.5 11zM401 -54
q-125 -6 -213.5 49t-88.5 139q0 83 88 143t214 66q128 6 215.5 -42.5t87.5 -130.5q0 -84 -89 -151t-214 -73zM368 269q-27 -3 -49.5 -11t-37.5 -19t-26.5 -24.5t-18 -27.5t-10.5 -27.5t-5.5 -26t-2 -21.5t0 -14.5l0.5 -5.5q0 -2 0.5 -5.5t2.5 -13.5t6 -19t13.5 -19.5
t22.5 -17.5q48 -26 97.5 -27t88.5 18.5t65 53.5q16 20 21 48.5t-2.5 58.5t-26 54.5t-55 38t-84.5 7.5zM325.5 48q-23.5 -3 -40 9t-16.5 32t15.5 37t38.5 20q26 2 42.5 -11t16.5 -33t-16.5 -35.5t-40 -18.5zM425 132.5q-8 -6.5 -16.5 -5.5t-13.5 8q-4 7 -2 16.5t9 15.5
q10 7 18.5 6t13 -8.5t2 -16.5t-10.5 -15.5zM839 377q10 0 18 6.5t9 16.5q1 1 1 3q14 130 -88 151q-33 7 -64 2q-11 0 -19 -8.5t-8 -19.5t8 -19.5t19 -8.5q91 20 98 -57q2 -20 -2 -39q0 -11 8.5 -19t19.5 -8zM819 705q-51 12 -137 -4q-1 0 -2.5 -1.5l-1.5 -1.5l-1 -2
q-13 -3 -21 -14t-8 -25q0 -17 11.5 -28.5t28.5 -11.5q21 2 36 8q6 0 20.5 2t38.5 -4t47.5 -15.5t49 -30.5t43.5 -50q31 -69 12 -133q-8 -20 -8 -39q0 -30 40 -30q33 0 39 40v0q16 53 16.5 99.5t-12.5 80.5t-33 62t-47.5 47.5t-54.5 32t-56 18.5z" />
    <glyph glyph-name="star" unicode="&#xe63c;" 
d="M33 895zM65 895zM97 895zM129 895zM161 895zM193 895zM225 895zM256 895zM288 895zM320 895zM352 895zM384 895zM416 895zM448 895zM480 895zM512 895zM544 895zM576 895zM608 895zM640 895zM672 895zM704 895zM736 895zM768 895zM799 895zM831 895zM863 895zM895 895z
M927 895zM959 895zM991 895zM1 863zM1 831zM1 799zM1 767zM1 735zM1 703zM1 671zM1 640zM1 608zM1 576zM1 544zM1 512zM1 480zM1 448zM1 416zM1 384zM1 352zM1 320zM1 288zM1 256zM1 224zM1 192zM1 160zM1 128zM1 97zM1 65zM1 33zM1 1zM1 -31zM1 -63zM1 -95zM513 787
q-6 0 -11 -1.5t-9 -3.5t-7 -5.5t-6 -7.5t-5 -8t-4 -9l-103 -235l-274 -25q-10 -2 -17 -9l-4 -4q-2 -2 -3 -5l-2 -4q-1 -3 -1 -6q-2 -12 5 -25q4 -5 8.5 -10.5t10.5 -10.5l10 -9l22 -19q1 -1 5.5 -5t6.5 -5l6 -5q4 -3 7 -6t6 -5l36 -30q30 -26 93 -80l-29 -124
q-6 -21 -12 -46q-4 -13 -6.5 -23t-4.5 -19q-4 -20 -8 -32l-4 -17q-2 -8 1.5 -15.5t11.5 -13.5q7 -5 17 -6l4 -1q6 0 13 4h2l3 2q2 1 3.5 2t4 2t4.5 3q11 5 31 17q10 6 40 23q27 16 44 25q46 26 115 66l232 -134l13 -5q8 -3 12 -3q6 0 12 1.5t12 4.5q11 6 8 23q-1 2 -1.5 6
t-2.5 11l-6 33q-5 22 -9 44q-2 11 -4.5 22.5t-5.5 24.5q-3 21 -7 39t-9 41.5t-9 45.5l183 164l6 6l4 6q3 3 5 5.5t4 4.5q8 9 8 22t-7 19q-8 6 -25 11l-275 25l-99 236q-1 2 -2.5 4t-2.5 5q-1 2 -2.5 3.5t-2.5 3.5t-3 3q-2 3 -4.5 5.5t-6 4.5t-7.5 3t-8 1z" />
    <glyph glyph-name="down" unicode="&#xe606;" 
d="M512 227l-282 281l-80 -80l322 -322l40 -40l362 362l-80 80z" />
    <glyph glyph-name="star2" unicode="&#xe63d;" 
d="M828 -163q-28 -21 -72 -9q-83 23 -241 69q-160 -48 -246 -72q-47 -13 -75 15v0q-19 19 -21 55q-4 88 -9 251q-99 140 -146 210q-21 30 -11 62q11 33 51 48q80 30 239 86q101 131 155 198q22 27 58 29q38 2 61 -27q54 -66 158 -199q112 -38 195 -68q1 -1 3.5 -2t8 -4.5
t9.5 -6.5t6.5 -7.5t1.5 -7.5q-7 -16 -18.5 -22t-19.5 -4l-8 3q-30 10 -203 70q-7 3 -12 9q-81 104 -163 204v1q-7 7 -17 7q-11 -1 -18 -9q-68 -85 -159 -204q-5 -6 -13 -9q-158 -55 -245 -88q-15 -5 -18 -14q-2 -6 3 -15q87 -128 151 -215q5 -7 5 -15q8 -240 9 -258
q1 -15 6 -20t22 0q98 26 252 73q8 2 16 0l5.5 -2t15.5 -4.5t23.5 -6.5t29.5 -8.5t33.5 -9.5t36 -10.5t36 -10.5l35 -10t32.5 -8q19 -6 26 -1t7 23q3 48 8 254q0 9 5 15q68 95 144 210q3 4 5 10q-3 2 -6 5.5t-2 15.5t15 25q9 7 17.5 6.5t13.5 -4.5l6 -4q25 -40 -4 -84
q-48 -72 -140 -204q-4 -160 -8 -247q-1 -44 -29 -64z" />
    <glyph glyph-name="heart" unicode="&#xe645;" horiz-adv-x="1184" 
d="M864 812q-123 0 -215 -83q-33 -31 -57 -69q-24 38 -57 69q-92 83 -215 83q-87 0 -160.5 -43t-116.5 -116.5t-43 -160.5q0 -89 29.5 -163.5t94.5 -150.5q43 -51 119 -117.5t156.5 -128t119.5 -90t64 -46.5q4 -3 9 -3t9 3q25 18 64 46.5t119.5 90t156.5 128t119 117.5
q65 76 94.5 150.5t29.5 163.5q0 87 -43 160.5t-116.5 116.5t-160.5 43zM1036 198q-50 -58 -156 -147t-170 -136t-118 -86q-54 39 -118 86t-170 136t-156 147q-61 72 -88.5 141.5t-27.5 152.5q0 119 84.5 203.5t203.5 84.5q111 0 193 -75q40 -36 65 -85q4 -8 14 -8t14 8
q25 49 65 85q82 75 193 75q119 0 203.5 -84.5t84.5 -203.5q0 -83 -27.5 -152.5t-88.5 -141.5z" />
    <glyph glyph-name="liaotian" unicode="&#xe630;" 
d="M346 347q-20 0 -34.5 -14.5t-14.5 -35t14.5 -35.5t35 -15t35 14.5t14.5 35.5t-14.5 35.5t-35.5 14.5v0zM512 347q-21 0 -35.5 -14.5t-14.5 -35t14.5 -35.5t35 -15t35.5 14.5t15 35.5t-14.5 35.5t-35.5 14.5v0zM678 347q-21 0 -35.5 -14.5t-14.5 -35t14.5 -35.5t35 -15
t35 14.5t14.5 35.5t-14.5 35.5t-34.5 14.5v0zM880 43q79 115 79 254q0 91 -35.5 174t-95.5 143t-142.5 95.5t-173.5 35.5t-173.5 -35.5t-142.5 -95.5t-95.5 -143t-35.5 -174t35.5 -173.5t95.5 -142.5t142.5 -95.5t173.5 -35.5q109 0 207 51l165 -50q19 -5 33 9t8 32z
M724 -32q-13 4 -25 -3q-87 -49 -187 -49q-103 0 -191 51t-139 139t-51 191.5t51 191t139 138.5t191 51t191 -51t139 -138.5t51 -191.5q0 -126 -76 -228q-10 -13 -6 -29l33 -108l-120 36v0zM724 -32z" />
    <glyph glyph-name="list" unicode="&#xe6b7;" 
d="M736 -67zM921 363zM166 609zM108 609.5q0 23.5 17 40.5t41 17t40.5 -17t16.5 -40.5t-16.5 -40.5t-40.5 -17t-41 17t-17 40.5zM881 579h-549q-12 0 -21 9t-9 21.5t9 21.5t21 9h549q12 0 21 -9t9 -21.5t-9 -21.5t-21 -9zM166 348zM108 348.5q0 23.5 17 40.5t41 17t40.5 -17
t16.5 -40.5t-16.5 -40.5t-40.5 -17t-41 17t-17 40.5zM881 318h-549q-12 0 -21 9t-9 21.5t9 21.5t21 9h549q12 0 21 -9t9 -21.5t-9 -21.5t-21 -9zM159 90zM102 90.5q0 23.5 17 40.5t40.5 17t40.5 -17t17 -40.5t-17 -40.5t-40.5 -17t-40.5 17t-17 40.5zM874 60h-548
q-13 0 -22 9t-9 21.5t9 21.5t22 9h548q13 0 22 -9t9 -21.5t-9 -21.5t-22 -9z" />
    <glyph glyph-name="ren" unicode="&#xe610;" 
d="M512 812q-101 0 -192.5 -40.5t-158 -109t-106 -163t-39.5 -199t39.5 -199t106 -163t158 -109t192.5 -40.5q175 0 312 114l55 55q61 69 95 157t34 185q0 105 -39.5 199.5t-106 163t-158 109t-192.5 40.5v0zM759 29v0v0h-494v0v0q-13 0 -22 9.5t-9 23.5q0 98 56.5 175.5
t145.5 103.5q-36 21 -57.5 58.5t-21.5 82.5q0 67 45.5 114t109.5 47t109.5 -47.5t45.5 -113.5q0 -45 -21.5 -82.5t-57.5 -58.5q89 -26 145.5 -103.5t56.5 -175.5q0 -14 -9 -23.5t-22 -9.5v0z" />
    <glyph glyph-name="xinhao" unicode="&#xe602;" 
d="M271 -54.5q0 -53.5 -38 -91.5t-91.5 -38t-91.5 38t-38 91.5t38 91.5t91.5 38t91.5 -38t38 -91.5zM648 -177h-171q-1 91 -36.5 174t-100 147.5t-147 100t-173.5 37.5v170q127 -2 242.5 -52.5t199.5 -134.5t134 -199.5t52 -242.5v0zM980 -177h-170q-2 160 -65 305.5
t-168.5 251.5t-251 169t-304.5 65v170q129 -1 253 -36t229 -97.5t193 -151t150.5 -193.5t97.5 -229t36 -254v0z" />
    <glyph glyph-name="phone" unicode="&#xe644;" 
d="M829 741v-884l-1 -9q-2 -26 -18 -41q-20 -19 -52 -19h-490q-10 0 -17 1q-42 6 -51 46q-2 11 -2 30v861q0 15 1 24q3 24 18 39q21 21 54 21h483q9 0 16 -1q47 -6 56 -52zM265 0h495v704h-495v-704zM443 775v-35h140v35h-140zM478 -106.5q0 -14.5 10 -25t24.5 -10.5
t25 10.5t10.5 25t-10.5 25t-25 10.5t-24.5 -10.5t-10 -25zM407 757q0 7 -5 12.5t-12 5.5t-12.5 -5t-5.5 -12.5t5 -12.5t12 -5q8 -1 13 4.5t5 12.5z" />
    <glyph glyph-name="star3" unicode="&#xe615;" 
d="M325 234l-48 -200q-3 -13 8 -21t23 -1l179 106l179 -106q5 -3 11 -3q7 0 12 4q11 8 8 21l-48 200l159 134q10 9 6 22t-18 14l-209 17l-81 190q-5 12 -18.5 12t-19.5 -12l-81 -190l-209 -17q-13 -1 -17.5 -14t6.5 -22zM403 381q12 1 17 13l67 157l67 -157q5 -12 17 -13
l172 -14l-130 -110q-10 -8 -7 -20l40 -165l-148 88q-11 6 -21 0l-149 -88l40 165q3 12 -7 20l-130 110z" />
    <glyph glyph-name="cuo" unicode="&#xe62b;" 
d="M512 363l230 231l67 -66l-231 -231l232 -232l-66 -66l-232 232l-234 -235l-66 67l234 234l-232 231l66 67z" />
    <glyph glyph-name="quan" unicode="&#xe603;" 
d="M512 804q-102 0 -195.5 -40t-161 -107.5t-107.5 -161t-40 -195.5t40 -195.5t107.5 -161t161 -107.5t195.5 -40t195.5 40t161 107.5t107.5 161t40 195.5t-40 195.5t-107.5 161t-161 107.5t-195.5 40zM512 -106q-110 0 -203.5 54.5t-148 148t-54.5 203.5t54.5 203.5
t148 148t203.5 54.5t203.5 -54.5t148 -148t54.5 -203.5t-54.5 -203.5t-148 -148t-203.5 -54.5zM661 -145z" />
    <glyph glyph-name="iconmessage" unicode="&#xe62a;" 
d="M911 662l1 1l-10 10l-0.5 0.5l-0.5 0.5q-12 12 -26 21q0 1 -1 1.5l-1 0.5q-14 9 -29 16q-1 0 -2 0.5t-2 0.5q-16 7 -32 10h-1t-2 1q-19 3 -35 3v0h-519v0h-1q-14 0 -32 -3q-5 -1 -9 -2q-16 -4 -29 -9q-1 -1 -3 -1.5t-3 -1.5q-11 -5 -22 -12q-6 -4 -8 -5q-13 -9 -23 -19
l-3 -3l-3 -3q-8 -9 -14 -18q-5 -6 -6 -8l-0.5 -0.5l-1.5 -1.5h1q-29 -46 -29 -98v-372q0 -76 54.5 -130.5t131.5 -54.5h519q77 0 131.5 54.5t54.5 130.5v372q0 66 -45 119v0zM770 654h0.5h1.5q11 -1 22 -3h0.5h0.5l-303 -266l-293 256l1.5 0.5l1.5 0.5q8 4 17 7l2.5 0.5
t4.5 1.5q13 3 25 3h519v0zM881 171q0 -46 -32.5 -78.5t-78.5 -32.5h-519q-46 0 -79 32.5t-33 78.5v372q0 22 9 43l344 -306l366 329q23 -30 23 -66v-372v0zM881 171z" />
    <glyph glyph-name="star4" unicode="&#xe6c3;" 
d="M289 261l-65 -272q-4 -18 10.5 -29t30.5 -1l245 145l244 -145q7 -4 15 -4q9 0 16 5q15 11 11 29l-65 272l216 183q14 12 8.5 30t-24.5 20l-285 23l-110 258q-8 17 -26 17t-26 -17l-110 -258l-285 -23q-19 -2 -24.5 -19.5t8.5 -30.5zM395 463q17 1 23 17l92 214l92 -214
q6 -16 23 -17l234 -19l-177 -151q-13 -11 -9 -28l53 -225l-202 120q-14 9 -28 0l-202 -120l53 225q4 17 -9 28l-177 151zM395 463z" />
    <glyph glyph-name="star5" unicode="&#xe604;" 
d="M973 445l-320 48l-142 291l-144 -289l-321 -45l231 -227l-57 -318l287 149l286 -152l-53 319zM506 109l-226 -119l43 252l-183 178l253 37l113 229l113 -229l253 -37l-183 -178l43 -252z" />
    <glyph glyph-name="iconfontchahao" unicode="&#xe665;" horiz-adv-x="1025" 
d="M895 812l-383 -383l-383 383q-74 -55 -129 -129l383 -383l-383 -383q56 -74 129 -129l383 383l383 -383q74 55 129 129l-383 383l383 383q-55 74 -129 129z" />
    <glyph glyph-name="heart1" unicode="&#xe60b;" horiz-adv-x="1155" 
d="M888 82q-7 -5 -18 -13.5t-43.5 -34t-61.5 -50t-65 -56t-61.5 -57t-43.5 -48.5t-18 -35q0 26 -77.5 99t-155 134.5t-77.5 60.5q-75 59 -129.5 121t-83.5 118.5t-43.5 112t-10 103.5t19.5 91t41.5 76t59 57.5t70.5 37.5t76 13q173 0 275 -123q25 -30 35 -53q4 7 10.5 19
t33 42t58.5 53.5t88 42.5t121 19q38 0 76 -13t70 -37.5t59 -57.5t41.5 -76t19 -91t-9.5 -103.5t-43.5 -112t-84 -118.5t-128.5 -121z" />
    <glyph glyph-name="quan1" unicode="&#xe636;" 
d="M512 -104q-99 0 -189.5 38.5t-156 104t-104 156t-38.5 189.5t38.5 189.5t104 156t156 104t189.5 38.5t189.5 -38.5t156 -104t104 -156t38.5 -189.5t-38.5 -189.5t-104 -156t-156 -104t-189.5 -38.5zM930.5 384q-0.5 114 -56.5 210t-152 152t-210 56.5t-210 -56
t-152.5 -152.5t-56.5 -210t56.5 -210t152.5 -152t210 -56t210 56t152.5 152t56 210z" />
    <glyph glyph-name="shopcar" unicode="&#xe601;" 
d="M311 689q-5 0 -9 -4t-4 -9.5t4 -9t9 -3.5h528q4 0 8 -1q16 -3 27 -13q10 -11 10 -24v-4l-47 -279q-4 -20 -17 -33q-11 -12 -29 -13l-420 -31q-5 0 -8.5 -4t-3.5 -9.5t4.5 -9.5t9.5 -3l420 30q27 2 46 21t24 48l47 278q1 5 1 9q0 24 -19 42q-17 17 -41 21q-6 1 -12 1h-528
zM345.5 -42q21.5 0 37 15.5t15.5 37t-15.5 37t-37 15.5t-37 -15.5t-15.5 -37t15.5 -37t37 -15.5zM770 -42q22 0 37.5 15.5t15.5 37t-15.5 37t-37.5 15.5t-37 -15.5t-15 -37t15 -37t37 -15.5zM825 119q6 0 9.5 4t3.5 9.5t-3.5 9.5t-9.5 4h-485q-18 0 -33.5 13t-17.5 32
l-73 512q-5 36 -24 55q-29 28 -90 24q-5 -1 -8.5 -5t-3.5 -9.5t4 -9t10 -3.5q49 4 69 -16q13 -12 17 -40l73 -512q4 -28 26.5 -48t50.5 -20h485z" />
    <glyph glyph-name="left2" unicode="&#xe6dd;" horiz-adv-x="1026" 
d="M437 -54q-4 5 -5 5q-231 232 -425 427q-1 0 -6 4v1v1q5 4 6 4q191 192 425 427q1 0 5 5h1l10 -11l57 -57q1 -1 6 -5l-1 -1l-1 -1l-1 -1l-1 -1l-1 -1l-1 -1l-1 -1l-1 -1l-1 -1l-1 -1l-1 -1l-1 -1l-1 -1l-1 -1l-1 -1l-1 -1l-1 -1l-1 -1l-1 -1l-1 -1l-1 -1l-1 -1h-1l-1 -1
l-1 -1l-1 -1l-1 -1l-1 -1l-1 -1l-1 -1l-1 -1l-1 -1l-1 -1l-1 -1l-1 -1l-1 -1l-1 -1l-1 -1l-1 -1l-1 -1l-1 -1l-1 -1l-1 -1l-1 -1l-1 -1l-1 -1l-1 -1l-1 -1l-1 -1l-1 -1l-1 -1l-1 -1l-1 -1l-1 -1l-1 -1l-1 -1l-1 -1l-1 -1l-1 -1l-1 -1l-1 -1l-1 -1l-1 -1l-1 -1l-1 -1l-1 -1
l-1 -1l-1 -1l-1 -1l-1 -1l-1 -1l-1 -1l-1 -1l-1 -1l-1 -1l-1 -1l-1 -1l-1 -1l-1 -1l-1 -1l-1 -1l-1 -1l-1 -1l-1 -1l-1 -1l-1 -1l-1 -1l-1 -1l-1 -1l-1 -1l-1 -1l-1 -1l-1 -1l-1 -1l-1 -1l-1 -1l-1 -1l-1 -1l-1 -1l-1 -1l-1 -1l-1 -1l-1 -1l-1 -1l-1 -1l-1 -1l-1 -1l-1 -1
l-1 -1l-1 -1l-1 -1l-1 -1l-1 -1l-1 -1l-1 -1l-1 -1l-1 -1l-1 -1l-1 -1l-1 -1l-1 -1l-1 -1l-1 -1l-1 -1l-1 -1l-1 -1l-1 -1l-1 -1l-1 -1l-1 -1l-1 -1l-1 -1l-1 -1l-1 -1l-1 -1l-1 -1l-1 -1l-1 -1l-1 -1l-1 -1l-1 -1l-1 -1l-1 -1l-1 -1l-1 -1l-1 -1l-1 -1l-1 -1l-1 -1l-1 -1
l-1 -1l-1 -1l-1 -1l-1 -1l-1 -1l-1 -1l-1 -1l-1 -1l-1 -1l-1 -1l-1 -1l-1 -1l-1 -1l-1 -1l-1 -1l-1 -1l-1 -1l-1 -1l-1 -1l-1 -1l-1 -1l-1 -1l-1 -1l-1 -1l-1 -1l-1 -1l-1 -1l-1 -1l-1 -1l-1 -1l-1 -1l-1 -1l-1 -1l-1 -1l-1 -1l-1 -1l-1 -1l-1 -1l-1 -1l-1 -1l-1 -1l-1 -1
l-1 -1l-1 -1l-1 -1l-1 -1l-1 -1l-1 -1l-1 -1l-1 -1l-1 -1l-1 -1l-1 -1l-1 -1l-1 -1l-1 -1l-1 -1l-1 -1l-1 -1l-1 -1l-1 -1l-1 -1l-1 -1l-1 -1l-1 -1l-1 -1l-1 -1l-1 -1l-1 -1l-1 -1l-1 -1l-1 -1l-1 -1l-1 -1l-1 -1l-2 -2l-1 -1l-1 -1l-1 -1l-1 -1l-1 -1l-1 -1l-1 -1l-1 -1
l-1 -1l-1 -1l-1 -1l-1 -1l-1 -1l-1 -1l-1 -1l-1 -1l-1 -1l-1 -1l-1 -1l-1 -1l-1 -1l-1 -1l-1 -1l-1 -1l-1 -1l-1 -1l-1 -1l-1 -1l-1 -1l-1 -1l-1 -1l-1 -1l-1 -1l-1 -1l-1 -1l-1 -1l-1 -1l-1 -1l-1 -1h-1l-1 -1l-1 -1l-1 -1l-1 -1l-1 -1l-1 -1l-1 -1l-1 -1l-1 -1l-1 -1
l-1 -1l-1 -1l-1 -1l-1 -1l-1 -1l-1 -1l-1 -1l-1 -1l-1 -1l-1 -1l-1 -1l-1 -1l-1 -1l-1 -1l-1 -1l-1 -1l-1 -1l-1 -1l-1 -1l-1 -1l-1 -1l-1 -1l-1 -1l-1 -1l-1 -1l-1 -1l-1 -1l-1 -1l-1 -1l-1 -1l-1 -1l-1 -1l-1 -1l-1 -1l-1 -1l-1 -1l-1 -1l-1 -1l-1 -1l-1 -1l-1 -1l-1 -1
l-1 -1l-1 -1l-1 -1l-1 -1l-1 -1l-1 -1l-1 -1l-1 -1l-1 -1l-1 -1l-1 -1l-1 -1l-1 -1l-1 -1l-1 -1l-1 -1l-1 -1l-1 -1l-1 -1l-1 -1l-1 -1l-1 -1l-1 -1l-1 -1l-1 -1l-1 -1l-1 -1l-1 -1l-1 -1l-1 -1l-1 -1l-1 -1l-1 -1l-1 -1l-1 -1l-1 -1l-1 -1l-1 -1l-1 -1l-1 -1l-1 -1l-1 -1
l-1 -1l-1 -1l-1 -1l-1 -2l365 -363l-5 -5l-28 -28l-37 -37l-3 -4h-1zM952 820q40 -40 43 -44q2 -2 30 -29l-1 -1l-1 -1l-1 -1l-1 -1l-1 -1l-1 -1l-1 -1l-1 -1l-1 -1l-1 -1l-1 -1l-1 -1l-1 -1l-1 -1l-1 -1l-1 -1l-1 -1l-1 -1l-1 -1l-1 -1l-1 -1l-1 -1l-1 -1l-1 -1l-1 -1
l-1 -1l-1 -1l-1 -1l-1 -1l-1 -1l-1 -1l-1 -1l-1 -1l-1 -1l-1 -1l-1 -1l-1 -1l-1 -1l-1 -1l-1 -1l-1 -1l-1 -1l-1 -1l-1 -1l-1 -1l-1 -1l-1 -1l-1 -1l-1 -1l-1 -1l-1 -1l-1 -1l-1 -1l-1 -1l-1 -1l-1 -1l-1 -1l-1 -1l-1 -1l-1 -1l-1 -1l-1 -1l-1 -1l-1 -1l-1 -1l-1 -1l-1 -1
l-1 -1l-1 -1l-1 -1l-1 -1l-1 -1l-1 -1l-1 -1l-1 -1l-1 -1l-1 -1l-1 -1l-1 -1l-1 -1l-1 -1l-1 -1l-1 -1l-1 -1l-1 -1l-1 -1l-1 -1l-1 -1l-1 -1l-1 -1l-1 -1l-1 -1l-1 -1l-1 -1l-1 -1l-1 -1l-1 -1l-1 -1l-1 -1l-1 -1l-1 -1l-1 -1l-1 -1l-1 -1l-1 -1l-1 -1l-1 -1l-1 -1l-1 -1
l-1 -1l-1 -1l-1 -1l-1 -1l-1 -1l-1 -1l-1 -1l-1 -1l-1 -1l-1 -1l-1 -1l-1 -1l-1 -1l-1 -1l-1 -1l-1 -1l-1 -1l-1 -1l-1 -1l-1 -1l-1 -1l-1 -1l-1 -1l-1 -1l-1 -1l-1 -1l-1 -1l-1 -1l-1 -1l-1 -1l-1 -1l-1 -1l-1 -1l-1 -1l-1 -1l-1 -1l-1 -1l-1 -1l-1 -1l-1 -1l-1 -1l-1 -1
l-1 -1l-1 -1l-1 -1l-1 -1l-1 -1l-1 -1l-1 -1l-1 -1l-1 -1l-1 -1l-1 -1l-1 -1l-1 -1l-1 -1l-1 -1l-1 -1l-1 -1l-1 -1l-1 -1l-1 -1l-1 -1l-1 -1l-1 -1l-1 -1l-1 -1l-1 -1l-1 -1l-1 -1l-1 -1l-1 -1l-1 -1l-1 -1l-1 -1l-1 -1l-1 -1l-1 -1l-1 -1l-1 -1l-1 -1l-1 -1l-1 -1h-1
l-1 -1l-1 -1l-1 -1l-1 -1l-1 -1l-1 -1l-1 -1l-1 -1l-1 -1l-1 -1l-1 -1l-1 -1l-2 -2l-1 -1l-1 -1l-1 -1l-1 -1l-1 -1l-1 -1l-1 -1l-1 -1l-1 -1l-1 -1l-1 -1l-1 -1l-1 -1l-1 -1l-1 -1l-1 -1l-1 -1l-1 -1l-1 -1l-1 -1l-1 -1l-1 -1l-1 -1l-1 -1l-1 -1l-1 -1l-1 -1l-1 -1l-1 -1
l-1 -1l-1 -1l-1 -1l-1 -1l-1 -1l-1 -1l-1 -1l-1 -1l-1 -1l-1 -1l-1 -1l-1 -1l-1 -1l-1 -1l-1 -1l-1 -1l-1 -1l-1 -1l-1 -1l-1 -1l-1 -1l-1 -1l-1 -1l-1 -1l-1 -1l-1 -1l-1 -1l-1 -1l-1 -1l-1 -1l-1 -1l-1 -1l-1 -1l-1 -1l-1 -1l-1 -1l-1 -1l-1 -1l-1 -1l-1 -1l-1 -1l-1 -1
l-1 -1l-1 -1l-1 -1l-1 -1l-1 -1l-1 -1l-1 -1l-1 -1l-1 -1l-1 -1l-1 -1l-1 -1l-1 -1l-1 -1l-1 -1l-1 -1l-1 -1l-1 -1l-1 -1l-1 -1l-1 -1l-1 -1l-1 -1l-1 -1l-1 -1l-1 -1l-1 -1l-1 -1l-1 -1l-1 -1l-1 -1l-1 -1l-1 -1l-1 -1l-1 -1l-1 -1l-1 -1l-1 -1l-1 -1l-1 -1l-1 -1l-1 -1
l-1 -1l-1 -1l-1 -1l-1 -1l-1 -1l-1 -1l-1 -1l-1 -1l-1 -1l-1 -1l-1 -1l-1 -1l-1 -1l-1 -1l-1 -1l-1 -1l-1 -1l-1 -1l-1 -1l-1 -1l-1 -1l-1 -1l-1 -1l-1 -1l-1 -1l-1 -1l-1 -1l-1 -1l-1 -1l-1 -1l-1 -1l-1 -1l-1 -1l-1 -1l-1 -1l-1 -1l-1 -1l-1 -1l-1 -1l-1 -1l-1 -1l-1 -1
l-1 -1l-2 -2l1 -1l1 -1l1 -1l1 -1l1 -1l1 -1l1 -1l1 -1l1 -1l1 -1l1 -1l1 -1l1 -1l1 -1l1 -1l1 -1l1 -1l1 -1l1 -1l1 -1l1 -1l1 -1l1 -1l1 -1l1 -1l1 -1l1 -1l1 -1l1 -1l1 -1l1 -1l1 -1l1 -1l1 -1l1 -1l1 -1l1 -1l1 -1h1l1 -1l1 -1l1 -1l1 -1l1 -1l1 -1l1 -1l1 -1l1 -1l1 -1
l1 -1l1 -1l1 -1l1 -1l1 -1l1 -1l1 -1l1 -1l1 -1l1 -1l1 -1l1 -1l1 -1l1 -1l1 -1l1 -1l1 -1l1 -1l1 -1l1 -1l1 -1l1 -1l1 -1l1 -1l1 -1l1 -1l1 -1l1 -1l1 -1l1 -1l1 -1l1 -1l1 -1l1 -1l1 -1l1 -1l1 -1l1 -1l1 -1l1 -1l1 -1l1 -1l1 -1l1 -1l1 -1l1 -1l1 -1l1 -1l1 -1l1 -1
l1 -1l1 -1l1 -1l1 -1l1 -1l1 -1l1 -1l1 -1l1 -1l1 -1l1 -1l1 -1l1 -1l1 -1l1 -1l1 -1l1 -1l1 -1l1 -1l1 -1l1 -1l1 -1l1 -1l1 -1l1 -1l1 -1l1 -1l1 -1l1 -1l1 -1l1 -1l1 -1l1 -1l1 -1l1 -1l1 -1l1 -1l1 -1l1 -1l1 -1l1 -1l1 -1l1 -1l1 -1l1 -1l1 -1l1 -1l1 -1l1 -1l1 -1
l1 -1l1 -1l1 -1l1 -1l1 -1l1 -1l1 -1l1 -1l1 -1l1 -1l1 -1l1 -1l1 -1l1 -1l1 -1l1 -1l1 -1l1 -1l1 -1l1 -1l1 -1l1 -1l1 -1l1 -1l1 -1l1 -1l1 -1l1 -1l1 -1l1 -1l1 -1l1 -1l1 -1l1 -1l1 -1l1 -1l1 -1l1 -1l1 -1l1 -1l1 -1l1 -1l1 -1l1 -1l1 -1l1 -1l1 -1l1 -1l1 -1l1 -1
l1 -1l1 -1l1 -1l1 -1l1 -1l1 -1l1 -1l1 -1l1 -1l1 -1l1 -1l1 -1l1 -1l1 -1l1 -1l1 -1l1 -1l1 -1l1 -1l2 -2l1 -1l1 -1l1 -1l1 -1l1 -1l1 -1l1 -1l1 -1l1 -1l1 -1l1 -1l1 -1l1 -1l1 -1l1 -1l1 -1l1 -1l1 -1l1 -1l1 -1l1 -1l1 -1l1 -1l1 -1l1 -1l1 -1l1 -1l1 -1l1 -1l1 -1
l1 -1l1 -1l1 -1l1 -1l1 -1l1 -1l1 -1l1 -1l1 -1l1 -1l1 -1l1 -1l1 -1l1 -1l1 -1l1 -1l1 -1l1 -1l1 -1l1 -1l1 -1l1 -1l1 -1l1 -1l1 -1l1 -1l1 -1l1 -1l1 -1l1 -1l1 -1l1 -1l1 -1l1 -1l1 -1l1 -1l1 -1l1 -1l1 -1l1 -1l1 -1l1 -1l1 -1l1 -1l1 -1l1 -1l1 -1l1 -1l1 -1l1 -1
l1 -1l1 -1l1 -1l1 -1h1l1 -1l1 -1l1 -1l1 -1l1 -1l1 -1l1 -1l1 -1l1 -1l1 -1l1 -1l1 -1l1 -1l1 -1l1 -1l1 -1l1 -1l1 -1l1 -1l1 -1l1 -1l1 -1l1 -1l1 -1l1 -1l1 -1l1 -1l1 -1l1 -1l1 -1l1 -1l1 -1l1 -1l1 -1l1 -1l1 -1l1 -1l1 -1l1 -1l1 -1l1 -1l1 -1l1 -1l1 -1l1 -1l1 -1
l1 -1l1 -1l1 -1l1 -1l1 -1l1 -1l1 -1l1 -1l1 -1l1 -1l1 -1l1 -1l2 -2l-5 -5q-7 -8 -29.5 -30.5l-34.5 -34.5q-1 0 -4 -4h-1l-4 5l-427 427l-5 4l5 5q344 345 427 428l4 5h1z" />
    <glyph glyph-name="dui" unicode="&#xe62f;" 
d="M432 143l-274 280l47 46l227 -234l387 390l47 -46z" />
    <glyph glyph-name="svgletter" unicode="&#xe678;" horiz-adv-x="1390" 
d="M1242 886h-1095q-57 0 -97 -40t-40 -97v-730q0 -57 40 -97t97 -40h1095q57 0 97 40t40 97v730q0 57 -40 97t-97 40v0zM1334 61q0 -57 -40.5 -97t-96.5 -40h-1005q-56 0 -96 40t-40 97v646q0 57 40 97t96 40h1005q56 0 96.5 -40t40.5 -97v-646v0zM1227 184l30 35l-300 257
l240 240l-34 33l-492 -492l-462 463l-33 -33l235 -234l-264 -264l34 -33l263 263l228 -227l32 32v0l220 220z" />
    <glyph glyph-name="right2" unicode="&#xe664;" 
d="M87 388q0 -117 57.5 -215.5t156 -156t215.5 -57.5t215.5 57.5t156 156t57.5 215.5t-57.5 215.5t-156 156t-215.5 57.5t-215.5 -57.5t-156 -156t-57.5 -215.5zM127 388q0 106 52 195.5t141.5 141.5t195.5 52t195.5 -52t141.5 -141.5t52 -195.5t-52 -195.5t-141.5 -141.5
t-195.5 -52t-195.5 52t-141.5 141.5t-52 195.5zM449 504l123 -116l-123 -116q-6 -6 -6 -14.5t6.5 -14t15 -5.5t15.5 6l138 130q6 6 6 14t-6 14l-138 130q-7 6 -15.5 6t-15 -5.5t-6.5 -14t6 -14.5z" />
    <glyph glyph-name="left1" unicode="&#xe667;" 
d="M516 817q-117 0 -215.5 -57.5t-156 -156t-57.5 -215.5t57.5 -215.5t156 -156t215.5 -57.5t215.5 57.5t156 156t57.5 215.5t-57.5 215.5t-156 156t-215.5 57.5zM516 -1q-106 0 -195.5 52t-141.5 141.5t-52 195.5t52 195.5t141.5 141.5t195.5 52t195.5 -52t141.5 -141.5
t52 -195.5t-52 -195.5t-141.5 -141.5t-195.5 -52zM582.5 532.5q-6.5 5.5 -15 5.5t-15.5 -6l-138 -130q-6 -6 -6 -14t6 -14l138 -130q7 -6 15.5 -6t15 5.5t6.5 14t-6 14.5l-123 116l123 116q6 6 6 14.5t-6.5 14z" />
    <glyph glyph-name="facebook" unicode="&#xe67a;" 
d="M148 794h729q18 0 31.5 -13.5t13.5 -31.5v-730q0 -18 -13.5 -31.5t-31.5 -13.5h-209v318h106l16 123h-122v79q0 30 12.5 45t48.5 15h66v111q-34 5 -96 5q-72 0 -115.5 -43t-43.5 -121v-91h-107v-123h107v-318h-392q-19 0 -32.5 13.5t-13.5 31.5v730q0 18 13.5 31.5
t32.5 13.5z" />
    <glyph glyph-name="down1" unicode="&#xe631;" 
d="M887 405l-379 -396l-378 396q-9 9 -20.5 9t-19.5 -8.5t-8 -21t8 -20.5l398 -417q9 -9 20.5 -9t19.5 9l399 417q8 8 8 20.5t-8.5 21t-20 8.5t-19.5 -9zM887 783l-379 -396l-378 396q-9 9 -20.5 9t-19.5 -9t-8 -21t8 -21l398 -416q9 -9 20.5 -9t19.5 9l399 416q8 9 8 21
t-8.5 21t-20 9t-19.5 -9v0z" />
    <glyph glyph-name="up" unicode="&#xe639;" 
d="M120 330l379 396l378 -396q8 -9 20 -9t20 8.5t8 21t-8 21.5l-398 416q-9 9 -20.5 9t-19.5 -9l-399 -416q-8 -9 -8 -21.5t8.5 -21t20 -8.5t19.5 9zM120 -48l379 396l378 -396q8 -9 20 -9t20 9t8 21t-8 21l-398 416q-9 9 -20.5 9t-19.5 -9l-399 -416q-8 -9 -8 -21t8.5 -21
t20 -9t19.5 9v0z" />
    <glyph glyph-name="icon" unicode="&#xe60c;" horiz-adv-x="1032" 
d="M7 68h1009l-504 630l-505 -630v0zM7 68z" />
    <glyph glyph-name="lajixiang" unicode="&#xe60f;" 
d="M512 22zM47 774h928v-84h-928v84zM319 893h386v-84h-386v84zM342 570h84v-507h-84v507zM599 570h84v-507h-84v507zM840 -126h-658q-17 0 -29 12t-12 29v816h84v-775h574v775h84v-816q0 -17 -12.5 -29t-30.5 -12z" />
    <glyph glyph-name="facebook1" unicode="&#xe6d9;" 
d="M966 893q22 0 40 -16.5t18 -38.5v-910q0 -23 -18 -39.5t-40 -16.5h-261v394h133l20 155h-153v102q0 76 78 76h80v133q-42 9 -119 9q-89 0 -143 -54.5t-54 -151.5v-114h-134v-155h134v-394h-491q-23 0 -39.5 16.5t-16.5 39.5v910q0 22 16.5 38.5t39.5 16.5h910z" />
    <glyph glyph-name="dui1" unicode="&#xe68e;" 
d="M512 896q-139 0 -257 -68.5t-186.5 -186.5t-68.5 -257t68.5 -257t186.5 -186.5t257 -68.5t257 68.5t186.5 186.5t68.5 257t-68.5 257t-186.5 186.5t-257 68.5zM512 -55q-89 0 -170 35t-140 94t-94 140t-35 170t35 170t94 140t140 94t170 35t170 -35t140 -94t94 -140
t35 -170t-35 -170t-94 -140t-140 -94t-170 -35zM666 535l-193 -236l-122 102q-11 9 -26.5 7.5t-24.5 -12.5q-10 -11 -9 -26.5t14 -24.5l148 -127q2 -1 4.5 -2t3.5 -3l2 -2q5 -3 12 -3q10 0 15 3q1 0 2.5 1t2.5 1l3 2.5t4 5.5l217 265q9 11 7.5 26.5t-12.5 25.5q-9 10 -23 9
t-25 -12z" />
    <glyph glyph-name="video" unicode="&#xe754;" 
d="M981 736q-223 32 -469 32t-469 -32q-43 -168 -43 -352t43 -352q223 -32 469 -32t469 32q43 168 43 352t-43 352zM384 192v384l320 -192z" />
    <glyph glyph-name="instagram" unicode="&#xe76f;" horiz-adv-x="1025" 
d="M683 384q0 71 -50 121t-121 50t-121 -50t-50 -121t50 -121t121 -50t121 50t50 121zM775 384q0 -109 -77 -186t-186 -77t-186 77t-77 186t77 186t186 77t186 -77t77 -186zM847 657.5q0 -25.5 -18 -43.5t-43.5 -18t-43.5 18t-18 43.5t18 43.5t43.5 18t43.5 -18t18 -43.5z
M512 804q-5 0 -51 0.5t-70 0t-64.5 -2t-69 -6.5t-47.5 -13q-33 -13 -58.5 -38.5t-38.5 -58.5q-8 -19 -13 -47.5t-6.5 -69t-2 -64.5t0 -70t0.5 -51t-0.5 -51t0 -70t2 -64.5t6.5 -69t13 -47.5q13 -33 38.5 -58.5t58.5 -38.5q19 -8 47.5 -13t69 -6.5t64.5 -2t70 0t51 0.5
t51 -0.5t70 0t64.5 2t69 6.5t47.5 13q33 13 58.5 38.5t38.5 58.5q8 19 13 47.5t6.5 69t2 64.5t0 70t-0.5 51t0.5 51t0 70t-2 64.5t-6.5 69t-13 47.5q-13 33 -38.5 58.5t-58.5 38.5q-19 8 -47.5 13t-69 6.5t-64.5 2t-70 0t-51 -0.5zM1024 384q0 -153 -3 -211
q-7 -139 -83 -215t-215 -83q-58 -3 -211 -3t-211 3q-139 7 -215 83t-83 215q-3 58 -3 211t3 211q7 139 83 215t215 83q58 3 211 3t211 -3q139 -7 215 -83t83 -215q3 -58 3 -211zM1024 384z" />
    <glyph glyph-name="point" unicode="&#xe648;" 
d="M471 333v82h82v-82h-82z" />
    <glyph glyph-name="writer" unicode="&#xe605;" 
d="M947.5 820.5q-11.5 11.5 -27.5 11.5t-28 -12l-534 -534q-11 -11 -11 -27.5t11.5 -27.5t27.5 -11t27 11l535 534q11 12 11 28t-11.5 27.5zM845 385q-16 0 -27 -11.5t-11 -26.5v-332h-664v663h332v1q3 -1 4 -1q16 0 27 11.5t11 27.5t-11 27t-27 11h-4v0h-358q-21 0 -36 -15
t-15 -36v-715q0 -21 15 -36t36 -15h715q21 0 36 15t15 36v358q0 15 -11 26.5t-27 11.5z" />
    <glyph glyph-name="up1" unicode="&#xe649;" 
d="M509.5 885q-102.5 0 -195.5 -39.5t-160.5 -107t-107 -160.5t-39.5 -195.5t39.5 -195.5t107 -160.5t160.5 -107t195.5 -39.5t195.5 39.5t160.5 107t107 160.5t39.5 195.5t-39.5 195.5t-107 160.5t-160.5 107t-195.5 39.5zM800.5 217.5q-9.5 -9.5 -22.5 -9.5t-22 9
l-246 252l-245 -252q-9 -9 -22.5 -9t-22.5 9.5t-9 23t9 22.5l262 269q19 15 30.5 15t26.5 -15l262 -269q9 -9 9 -22.5t-9.5 -23z" />
    <glyph glyph-name="close" unicode="&#xe647;" 
d="M512 864q-129 0 -239.5 -65t-175.5 -175.5t-65 -239.5t65 -239.5t175.5 -175.5t239.5 -65t239.5 65t175.5 175.5t65 239.5t-65 239.5t-175.5 175.5t-239.5 65zM749 141q-15 -10 -35 -10t-29 10l-179 179l-173 -173q-10 -14 -30 -14t-34.5 14.5t-14.5 32t15 31.5l173 173
l-167 166q-14 15 -14 32.5t14.5 32t32 14.5t31.5 -15l167 -166l172 173q15 14 32.5 14t32 -14.5t14.5 -32t-15 -31.5l-166 -173l179 -179q10 -9 9 -29.5t-15 -34.5z" />
    <glyph glyph-name="che" unicode="&#xe61d;" 
d="M300 744v-172l-117 -3l-114 -126v-293h103q0 -53 37.5 -90.5t90.5 -37.5t90 37.5t37 90.5h173q0 -53 37.5 -90.5t90 -37.5t90 37.5t37.5 90.5h104v594h-659zM122 413v34l81 88h78v-122h-159zM299.5 69q-33.5 0 -57 23.5t-23.5 57.5t23.5 57.5t57 23.5t57.5 -23.5
t24 -57.5t-24 -57.5t-57.5 -23.5zM727.5 69q-33.5 0 -57.5 23.5t-24 57.5t24 57.5t57.5 23.5t57.5 -23.5t24 -57.5t-24 -57.5t-57.5 -23.5z" />
  </font>
</defs>
</svg>
